# xmcd
#
# Track frame offsets:
#	150
#	16866
#	34102
#	49130
#	68817
#	86054
#	102342
#	120753
#	136978
#	153400
#	174339
#	193111
#	210057
#	225188
#	242319
#
# Disc length: 3469 seconds
#
# Revision: 1
# Processed by: cddbd v1.5.1PL0 Copyright (c) Steve Scherf et al.
# Submitted via: audiograbber 1.80
#
DISCID=ab0d8b0f
DTITLE=Orishas - Emigrante
DYEAR=1900
DGENRE=
TTITLE0=¿Que Pasa?
TTITLE1=Mujer
TTITLE2=Guajiro
TTITLE3=¿Que Bola?
TTITLE4=Asi Fue
TTITLE5=Niños
TTITLE6=300 Kilos (Featuring Yuri Buenaventura)
TTITLE7=Gladiadores
TTITLE8=Ausencia (Featuring Niko Noki)
TTITLE9=Habana
TTITLE10=Testimonio
TTITLE11=El Rey de la Pachacha
TTITLE12=Emigrantes
TTITLE13=Desaparecidos
TTITLE14=La vida Pasa (Featuring Passi)
EXTD=
EXTT0=
EXTT1=
EXTT2=
EXTT3=
EXTT4=
EXTT5=
EXTT6=
EXTT7=
EXTT8=
EXTT9=
EXTT10=
EXTT11=
EXTT12=
EXTT13=
EXTT14=
PLAYORDER=
